<svg xmlns="http://www.w3.org/2000/svg" viewBox="0 0 1200 675" role="img" aria-labelledby="title desc">
  <title id="title">Artificial photosynthesis flow diagram</title>
  <desc id="desc">Sunlight enters a reactor, water and carbon dioxide go in, and fuel comes out.</desc>
  <defs>
    <linearGradient id="bg" x1="0" x2="1" y1="0" y2="1">
      <stop offset="0%" stop-color="#0d1a2d"/>
      <stop offset="100%" stop-color="#07111f"/>
    </linearGradient>
    <linearGradient id="sun" x1="0" x2="1">
      <stop offset="0%" stop-color="#78d9ff"/>
      <stop offset="100%" stop-color="#a8ffb1"/>
    </linearGradient>
    <marker id="arrow" markerWidth="12" markerHeight="12" refX="10" refY="6" orient="auto">
      <path d="M0,0 L12,6 L0,12 Z" fill="#78d9ff"/>
    </marker>
  </defs>
  <rect width="1200" height="675" rx="28" fill="url(#bg)"/>
  <circle cx="160" cy="130" r="64" fill="url(#sun)" opacity="0.18"/>
  <circle cx="160" cy="130" r="32" fill="#78d9ff" opacity="0.7"/>
  <g fill="none" stroke="#78d9ff" stroke-width="4" stroke-linecap="round" stroke-linejoin="round" opacity="0.75">
    <path d="M160 56v-28"/>
    <path d="M160 232v28"/>
    <path d="M84 130H56"/>
    <path d="M264 130h28"/>
    <path d="M108 78l-20-20"/>
    <path d="M212 78l20-20"/>
    <path d="M108 182l-20 20"/>
    <path d="M212 182l20 20"/>
  </g>
  <text x="160" y="275" fill="#eef5ff" font-family="Inter, system-ui, sans-serif" font-size="34" text-anchor="middle" font-weight="700">Sunlight</text>
  <text x="160" y="312" fill="#a9bdd7" font-family="Inter, system-ui, sans-serif" font-size="22" text-anchor="middle">Photons arrive</text>

  <rect x="360" y="190" width="255" height="250" rx="28" fill="rgba(255,255,255,0.04)" stroke="rgba(173,213,255,0.22)"/>
  <rect x="405" y="236" width="165" height="115" rx="18" fill="rgba(120,217,255,0.12)" stroke="#78d9ff" stroke-width="3"/>
  <circle cx="485" cy="293" r="34" fill="#a8ffb1" opacity="0.28" stroke="#a8ffb1" stroke-width="3"/>
  <path d="M405 236l-36-34" stroke="#78d9ff" stroke-width="4"/>
  <path d="M570 236l36-34" stroke="#78d9ff" stroke-width="4"/>
  <path d="M405 351l-36 34" stroke="#78d9ff" stroke-width="4"/>
  <path d="M570 351l36 34" stroke="#78d9ff" stroke-width="4"/>
  <text x="487" y="418" fill="#eef5ff" font-family="Inter, system-ui, sans-serif" font-size="28" text-anchor="middle" font-weight="700">Catalyst / reactor</text>
  <text x="487" y="450" fill="#a9bdd7" font-family="Inter, system-ui, sans-serif" font-size="20" text-anchor="middle">Where the chemistry happens</text>

  <g fill="rgba(255,255,255,0.04)" stroke="rgba(173,213,255,0.22)">
    <rect x="690" y="185" width="170" height="120" rx="22"/>
    <rect x="690" y="330" width="170" height="120" rx="22"/>
  </g>
  <text x="775" y="252" fill="#eef5ff" font-family="Inter, system-ui, sans-serif" font-size="28" text-anchor="middle" font-weight="700">Water</text>
  <text x="775" y="284" fill="#a9bdd7" font-family="Inter, system-ui, sans-serif" font-size="20" text-anchor="middle">H₂O</text>
  <text x="775" y="397" fill="#eef5ff" font-family="Inter, system-ui, sans-serif" font-size="28" text-anchor="middle" font-weight="700">CO₂</text>
  <text x="775" y="429" fill="#a9bdd7" font-family="Inter, system-ui, sans-serif" font-size="20" text-anchor="middle">optional carbon source</text>

  <g stroke="#78d9ff" stroke-width="7" fill="none" marker-end="url(#arrow)">
    <path d="M235 130H355"/>
    <path d="M615 248H680"/>
    <path d="M615 392H680"/>
    <path d="M860 290H995"/>
  </g>

  <rect x="985" y="220" width="140" height="200" rx="28" fill="rgba(168,255,177,0.08)" stroke="rgba(168,255,177,0.55)"/>
  <text x="1055" y="295" fill="#eef5ff" font-family="Inter, system-ui, sans-serif" font-size="32" text-anchor="middle" font-weight="700">Fuel</text>
  <text x="1055" y="332" fill="#a9bdd7" font-family="Inter, system-ui, sans-serif" font-size="20" text-anchor="middle">H₂ / methanol / SAF</text>
  <path d="M1048 364h15v16h-15z" fill="#a8ffb1"/>
  <path d="M1028 346c0-14 8-24 14-30 6 6 14 16 14 30 0 15-11 28-14 28-3 0-14-13-14-28z" fill="#a8ffb1" opacity="0.86"/>
</svg>
